  <svg
          width="212"
          height="56"
          viewBox="0 0 212 56"
          xmlns="http://www.w3.org/2000/svg"
          version="1.1"
         id="Layer_1"
         style="enable-background:new 0 0 212 56"
         xml:space="preserve"

        >
        <style>.st0{fill:none;stroke:#7703fc;stroke-width:14;stroke-miterlimit:10}</style>
          <g clip-path="url(#clip0_1401_81011)">
            <path
              d="M42.1035 16.355H30.8815V8.4541H27.1076V16.355H16.935V20.1719H27.1076V32.5294H15.1534V36.3463H25.743L15.0469 53.3689L18.2462 55.4379L29.0953 38.256L41.4687 55.5433L44.5105 53.2635L32.3989 36.3463H46.299V32.5294H42.1058L42.1035 16.355ZM38.3273 32.5224H30.8815V20.1719H38.3273V32.5224Z"
              fill="white"
            />
            <path
              d="M13.1078 23.7264L10.4344 26.3249V8.34863H6.65817V26.3249L3.98471 23.7264L0 27.9158L2.72674 30.5659L6.65817 26.4303V55.9135H10.4344V26.4303L14.3658 30.5659L17.0925 27.9158L13.1078 23.7264Z"
              fill="white"
            />
            <path
              d="M77.4931 41.5899H94.7965V20.1716H77.4931V16.1415H98.9387V12.3246H77.4931V8.3999H73.7192V12.3246H52.2227V16.1415H73.7192V20.1716H56.3649V41.5899H73.7192V45.9363H52.2227V49.7555H73.7192V55.9062H77.4931V49.7626H98.9897V45.9433H77.4931V41.5899ZM77.4931 23.9838H91.0203V29.0754H77.4931V23.9838ZM77.4931 32.8876H91.0203V37.7659H77.4931V32.8876ZM73.7192 37.7659H60.1388V32.8993H73.7192V37.7659ZM73.7192 29.0707H60.1388V23.9909H73.7192V29.0707Z"
              fill="white"
            />
            <path
              d="M130.606 24.3615L133.228 21.5521L129.19 17.6274L126.57 20.3853L130.606 24.3615Z"
              fill="white"
            />
            <path
              d="M114.301 32.8993V21.4978H118.862V17.6903H114.301V8.3999H110.525V17.6903H104.758V21.5072H110.525V34.6051H105.428V38.4243H110.525V51.1497H107.012V54.9689H114.301V37.8831L119.597 33.2695L117.129 30.4063C116.189 31.2029 115.244 32.0511 114.301 32.8993Z"
              fill="white"
            />
            <path
              d="M143.19 17.6274L139.152 21.5521L141.825 24.3615L145.81 20.3853L143.19 17.6274Z"
              fill="white"
            />
            <path
              d="M150.49 40.2707V35.0737H138.117V31.1491H150.648V10.5298H140.056V14.3491H146.871V27.3415H138.117V8.50537H134.34V27.3322H125.537V14.8177L131.41 13.8617L130.946 10.0448L121.772 11.4225V31.1491H134.354V35.0737H120.827V38.8906H123.765L122.769 40.8003L132.153 45.8379L121.033 51.7777L122.815 55.1189L136.134 47.9584L149.503 55.1189L151.285 51.7777L140.118 45.8379L150.49 40.2707ZM127.21 38.8906H145.048L136.136 43.6635L127.21 38.8906Z"
              fill="white"
            />
            <path
              d="M157.345 20.502V35.9664H175.994L191.284 20.502H157.345Z"
              fill="white"
            />
            <path
              d="M211.556 0H209.278H160.164H157.384H157.345H6.56787V3.98326H157.345V15.3473H196.381L211.556 0Z"
              fill="white"
            />
            <path
              d="M157.345 54.8287L157.384 54.7865V56.0002L171.173 41.1216H157.345V54.8287Z"
              fill="white"
            />
          </g>
          <defs>
            <clipPath id="clip0_1401_81011">
              <rect width="211.556" height="56" fill="white" />
            </clipPath>
          </defs>
        </svg>
